<svg width="24" height="24" viewBox="0 0 24 24" fill="none" xmlns="http://www.w3.org/2000/svg">
<path d="M12 6.54545C8.98909 6.54545 6.54545 8.98909 6.54545 12C6.54545 15.0109 8.98909 17.4545 12 17.4545C15.0109 17.4545 17.4545 15.0109 17.4545 12C17.4545 8.98909 15.0109 6.54545 12 6.54545ZM10.9091 0V4.36364H13.0909V0H10.9091ZM10.9091 19.6364V24H13.0909V19.6364H10.9091ZM24 10.9091H19.6364V13.0909H24V10.9091ZM4.36364 10.9091H0V13.0909H4.36364V10.9091ZM16.6255 18.1745L19.32 20.8691L20.8582 19.3309L18.1636 16.6364L16.6255 18.1745ZM3.13091 4.66909L5.82545 7.36364L7.36364 5.82545L4.66909 3.13091L3.13091 4.66909ZM5.82545 16.6255L3.13091 19.32L4.66909 20.8582L7.36364 18.1636L5.82545 16.6255ZM19.3309 3.13091L16.6364 5.82545L18.1745 7.36364L20.8691 4.66909L19.3309 3.13091Z" fill="#4F4F4F"/>
</svg>
