<?xml version="1.0" encoding="UTF-8"?>
<svg xmlns="http://www.w3.org/2000/svg" xmlns:xlink="http://www.w3.org/1999/xlink" viewBox="0 0 60 60" width="60px" height="60px">
<g id="surface186585235">
<path style=" stroke:none;fill-rule:nonzero;fill:rgb(100%,100%,100%);fill-opacity:1;" d="M 30 45.898438 C 21.21875 45.898438 14.101562 38.78125 14.101562 30 C 14.101562 21.21875 21.21875 14.101562 30 14.101562 C 38.78125 14.101562 45.898438 21.21875 45.898438 30 C 45.898438 38.78125 38.78125 45.898438 30 45.898438 Z M 30 45.898438 "/>
<path style=" stroke:none;fill-rule:nonzero;fill:rgb(20%,20%,20%);fill-opacity:1;" d="M 30 6.960938 C 17.277344 6.960938 6.960938 17.277344 6.960938 30 C 6.960938 42.722656 17.277344 53.039062 30 53.039062 C 42.722656 53.039062 53.039062 42.722656 53.039062 30 C 53.039062 17.277344 42.722656 6.960938 30 6.960938 Z M 41.519531 31.921875 L 31.921875 31.921875 L 31.921875 41.519531 C 31.921875 42.582031 31.058594 43.441406 30 43.441406 C 28.941406 43.441406 28.078125 42.582031 28.078125 41.519531 L 28.078125 31.921875 L 18.480469 31.921875 C 17.421875 31.921875 16.558594 31.0625 16.558594 30 C 16.558594 28.9375 17.421875 28.078125 18.480469 28.078125 L 28.078125 28.078125 L 28.078125 18.480469 C 28.078125 17.417969 28.941406 16.558594 30 16.558594 C 31.058594 16.558594 31.921875 17.417969 31.921875 18.480469 L 31.921875 28.078125 L 41.519531 28.078125 C 42.578125 28.078125 43.441406 28.9375 43.441406 30 C 43.441406 31.0625 42.578125 31.921875 41.519531 31.921875 Z M 41.519531 31.921875 "/>
</g>
</svg>
