<svg width="22" height="26" viewBox="0 0 22 26" fill="none" xmlns="http://www.w3.org/2000/svg">
<path d="M6.99999 3.66667C6.64637 3.66667 6.30723 3.80714 6.05719 4.05719C5.80714 4.30724 5.66666 4.64638 5.66666 5C5.66666 5.35362 5.80714 5.69276 6.05719 5.94281C6.30723 6.19286 6.64637 6.33333 6.99999 6.33333C7.35362 6.33333 7.69275 6.19286 7.9428 5.94281C8.19285 5.69276 8.33333 5.35362 8.33333 5C8.33333 4.64638 8.19285 4.30724 7.9428 4.05719C7.69275 3.80714 7.35362 3.66667 6.99999 3.66667ZM3.22666 3.66667C3.50213 2.88596 4.01298 2.20991 4.68879 1.73172C5.36461 1.25353 6.17211 0.996735 6.99999 0.996735C7.82788 0.996735 8.63538 1.25353 9.31119 1.73172C9.98701 2.20991 10.4979 2.88596 10.7733 3.66667H20.3333C20.6869 3.66667 21.0261 3.80714 21.2761 4.05719C21.5262 4.30724 21.6667 4.64638 21.6667 5C21.6667 5.35362 21.5262 5.69276 21.2761 5.94281C21.0261 6.19286 20.6869 6.33333 20.3333 6.33333H10.7733C10.4979 7.11404 9.98701 7.79009 9.31119 8.26828C8.63538 8.74647 7.82788 9.00327 6.99999 9.00327C6.17211 9.00327 5.36461 8.74647 4.68879 8.26828C4.01298 7.79009 3.50213 7.11404 3.22666 6.33333H1.66666C1.31304 6.33333 0.973901 6.19286 0.723853 5.94281C0.473804 5.69276 0.333328 5.35362 0.333328 5C0.333328 4.64638 0.473804 4.30724 0.723853 4.05719C0.973901 3.80714 1.31304 3.66667 1.66666 3.66667H3.22666ZM15 11.6667C14.6464 11.6667 14.3072 11.8071 14.0572 12.0572C13.8071 12.3072 13.6667 12.6464 13.6667 13C13.6667 13.3536 13.8071 13.6928 14.0572 13.9428C14.3072 14.1929 14.6464 14.3333 15 14.3333C15.3536 14.3333 15.6928 14.1929 15.9428 13.9428C16.1929 13.6928 16.3333 13.3536 16.3333 13C16.3333 12.6464 16.1929 12.3072 15.9428 12.0572C15.6928 11.8071 15.3536 11.6667 15 11.6667ZM11.2267 11.6667C11.5021 10.886 12.013 10.2099 12.6888 9.73172C13.3646 9.25353 14.1721 8.99673 15 8.99673C15.8279 8.99673 16.6354 9.25353 17.3112 9.73172C17.987 10.2099 18.4979 10.886 18.7733 11.6667H20.3333C20.6869 11.6667 21.0261 11.8071 21.2761 12.0572C21.5262 12.3072 21.6667 12.6464 21.6667 13C21.6667 13.3536 21.5262 13.6928 21.2761 13.9428C21.0261 14.1929 20.6869 14.3333 20.3333 14.3333H18.7733C18.4979 15.114 17.987 15.7901 17.3112 16.2683C16.6354 16.7465 15.8279 17.0033 15 17.0033C14.1721 17.0033 13.3646 16.7465 12.6888 16.2683C12.013 15.7901 11.5021 15.114 11.2267 14.3333H1.66666C1.31304 14.3333 0.973901 14.1929 0.723853 13.9428C0.473804 13.6928 0.333328 13.3536 0.333328 13C0.333328 12.6464 0.473804 12.3072 0.723853 12.0572C0.973901 11.8071 1.31304 11.6667 1.66666 11.6667H11.2267ZM6.99999 19.6667C6.64637 19.6667 6.30723 19.8071 6.05719 20.0572C5.80714 20.3072 5.66666 20.6464 5.66666 21C5.66666 21.3536 5.80714 21.6928 6.05719 21.9428C6.30723 22.1929 6.64637 22.3333 6.99999 22.3333C7.35362 22.3333 7.69275 22.1929 7.9428 21.9428C8.19285 21.6928 8.33333 21.3536 8.33333 21C8.33333 20.6464 8.19285 20.3072 7.9428 20.0572C7.69275 19.8071 7.35362 19.6667 6.99999 19.6667ZM3.22666 19.6667C3.50213 18.886 4.01298 18.2099 4.68879 17.7317C5.36461 17.2535 6.17211 16.9967 6.99999 16.9967C7.82788 16.9967 8.63538 17.2535 9.31119 17.7317C9.98701 18.2099 10.4979 18.886 10.7733 19.6667H20.3333C20.6869 19.6667 21.0261 19.8071 21.2761 20.0572C21.5262 20.3072 21.6667 20.6464 21.6667 21C21.6667 21.3536 21.5262 21.6928 21.2761 21.9428C21.0261 22.1929 20.6869 22.3333 20.3333 22.3333H10.7733C10.4979 23.114 9.98701 23.7901 9.31119 24.2683C8.63538 24.7465 7.82788 25.0033 6.99999 25.0033C6.17211 25.0033 5.36461 24.7465 4.68879 24.2683C4.01298 23.7901 3.50213 23.114 3.22666 22.3333H1.66666C1.31304 22.3333 0.973901 22.1929 0.723853 21.9428C0.473804 21.6928 0.333328 21.3536 0.333328 21C0.333328 20.6464 0.473804 20.3072 0.723853 20.0572C0.973901 19.8071 1.31304 19.6667 1.66666 19.6667H3.22666Z" fill="white"/>
</svg>
